<?xml version="1.0" encoding="iso-8859-1"?>
<!-- Generator: Adobe Illustrator 20.1.0, SVG Export Plug-In . SVG Version: 6.00 Build 0)  -->
<svg version="1.1" id="Phone-9" xmlns="http://www.w3.org/2000/svg" xmlns:xlink="http://www.w3.org/1999/xlink" x="0px" y="0px"
	 viewBox="0 0 32 31.002" style="enable-background:new 0 0 32 31.002;" xml:space="preserve">
<g>
	<path fill="#383B53" d="M29.998,17h-6C22.896,17,22,17.897,22,19.001V23H10v-3.999C10,17.897,9.102,17,7.998,17h-6C0.896,17,0,17.897,0,19.001v6
		c0,0.614,0.449,6.001,16,6.001s16-5.387,16-6.001v-6C32,17.897,31.102,17,29.998,17z M16,29.002c-13.459,0-13.997-4.001-14-4.001
		L1.998,19L8,19.001V24c0,0.552,0.447,1,1,1h14c0.553,0,1-0.448,1-1l-0.002-5L30,19.001l0.001,5.957
		C29.997,24.998,29.464,29.002,16,29.002z"/>
	<path fill="#383B53" d="M8,14h6v4c0,0.404,0.243,0.769,0.617,0.924C14.741,18.975,14.871,19,15,19c0.26,0,0.516-0.102,0.707-0.293L20.414,14H24
		c1.103,0,2-0.897,2-2V2c0-1.103-0.897-2-2-2H8C6.897,0,6,0.897,6,2v10C6,13.103,6.897,14,8,14z M8,2h16v10h-4
		c-0.266,0-0.52,0.105-0.707,0.293L16,15.586V13c0-0.552-0.447-1-1-1H8V2z"/>
	<path fill="#383B53" d="M18,10c0.032,0,0.065-0.001,0.099-0.005c0.298-0.029,0.567-0.191,0.733-0.44L20.535,7H22V5h-2
		c-0.334,0-0.646,0.167-0.832,0.445L17.845,7.43l-3.138-3.137c-0.391-0.391-1.023-0.391-1.414,0L11.586,6H10v2h2
		c0.266,0,0.52-0.105,0.707-0.293L14,6.414l3.293,3.293C17.481,9.896,17.736,10,18,10z"/>
</g>
</svg>
