<?xml version="1.0" encoding="UTF-8" standalone="no"?>
<svg
   xmlns:dc="http://purl.org/dc/elements/1.1/"
   xmlns:cc="http://creativecommons.org/ns#"
   xmlns:rdf="http://www.w3.org/1999/02/22-rdf-syntax-ns#"
   xmlns:svg="http://www.w3.org/2000/svg"
   xmlns="http://www.w3.org/2000/svg"
   xmlns:xlink="http://www.w3.org/1999/xlink"
   xmlns:sodipodi="http://sodipodi.sourceforge.net/DTD/sodipodi-0.dtd"
   xmlns:inkscape="http://www.inkscape.org/namespaces/inkscape"
   version="1.1"
   id="Layer_1"
   x="0px"
   y="0px"
   viewBox="0 0 106.29921 106.29921"
   enable-background="new 0 0 504.221 1672.042"
   xml:space="preserve"
   inkscape:version="0.91 r13725"
   sodipodi:docname="Feder-lineart.svg"
   width="30mm"
   height="30mm"><title
     id="title5643">feather - lineart</title><metadata
     id="metadata9"><rdf:RDF><cc:Work
         rdf:about=""><dc:format>image/svg+xml</dc:format><dc:type
           rdf:resource="http://purl.org/dc/dcmitype/StillImage" /><dc:title>feather - lineart</dc:title><cc:license
           rdf:resource="http://creativecommons.org/publicdomain/zero/1.0/" /><dc:contributor><cc:Agent><dc:title>GDJ</dc:title></cc:Agent></dc:contributor><dc:date>2016-10-16</dc:date><dc:creator><cc:Agent><dc:title>Frank Tremmel</dc:title></cc:Agent></dc:creator><dc:subject><rdf:Bag><rdf:li>feather</rdf:li><rdf:li>school</rdf:li><rdf:li>education</rdf:li><rdf:li>teaching</rdf:li><rdf:li>Feder</rdf:li><rdf:li>Unterricht</rdf:li><rdf:li>lineart</rdf:li><rdf:li></rdf:li></rdf:Bag></dc:subject><dc:description>line art feather</dc:description></cc:Work><cc:License
         rdf:about="http://creativecommons.org/publicdomain/zero/1.0/"><cc:permits
           rdf:resource="http://creativecommons.org/ns#Reproduction" /><cc:permits
           rdf:resource="http://creativecommons.org/ns#Distribution" /><cc:permits
           rdf:resource="http://creativecommons.org/ns#DerivativeWorks" /></cc:License></rdf:RDF></metadata><defs
     id="defs7"><pattern
       inkscape:collect="always"
       xlink:href="#Polkadots-large"
       id="pattern5622"
       patternTransform="scale(0.68386815,0.73690115)" /><pattern
       inkscape:stockid="Polka dots, large"
       id="Polkadots-large"
       patternTransform="translate(0,0) scale(10,10)"
       height="10"
       width="10"
       patternUnits="userSpaceOnUse"
       inkscape:collect="always"><circle
         id="circle5312"
         r="0.45"
         cy="0.810"
         cx="2.567"
         style="fill:#383B53;stroke:none" /><circle
         id="circle5314"
         r="0.45"
         cy="2.33"
         cx="3.048"
         style="fill:#383B53;stroke:none" /><circle
         id="circle5316"
         r="0.45"
         cy="2.415"
         cx="4.418"
         style="fill:#383B53;stroke:none" /><circle
         id="circle5318"
         r="0.45"
         cy="3.029"
         cx="1.844"
         style="fill:#383B53;stroke:none" /><circle
         id="circle5320"
         r="0.45"
         cy="1.363"
         cx="6.08"
         style="fill:#383B53;stroke:none" /><circle
         id="circle5322"
         r="0.45"
         cy="4.413"
         cx="5.819"
         style="fill:#383B53;stroke:none" /><circle
         id="circle5324"
         r="0.45"
         cy="4.048"
         cx="4.305"
         style="fill:#383B53;stroke:none" /><circle
         id="circle5326"
         r="0.45"
         cy="3.045"
         cx="5.541"
         style="fill:#383B53;stroke:none" /><circle
         id="circle5328"
         r="0.45"
         cy="5.527"
         cx="4.785"
         style="fill:#383B53;stroke:none" /><circle
         id="circle5330"
         r="0.45"
         cy="5.184"
         cx="2.667"
         style="fill:#383B53;stroke:none" /><circle
         id="circle5332"
         r="0.45"
         cy="1.448"
         cx="7.965"
         style="fill:#383B53;stroke:none" /><circle
         id="circle5334"
         r="0.45"
         cy="5.049"
         cx="7.047"
         style="fill:#383B53;stroke:none" /><circle
         id="circle5336"
         r="0.45"
         cy="0.895"
         cx="4.340"
         style="fill:#383B53;stroke:none" /><circle
         id="circle5338"
         r="0.45"
         cy="0.340"
         cx="7.125"
         style="fill:#383B53;stroke:none" /><circle
         id="circle5340"
         r="0.45"
         cy="1.049"
         cx="9.553"
         style="fill:#383B53;stroke:none" /><circle
         id="circle5342"
         r="0.45"
         cy="2.689"
         cx="7.006"
         style="fill:#383B53;stroke:none" /><circle
         id="circle5344"
         r="0.45"
         cy="2.689"
         cx="8.909"
         style="fill:#383B53;stroke:none" /><circle
         id="circle5346"
         r="0.45"
         cy="4.407"
         cx="9.315"
         style="fill:#383B53;stroke:none" /><circle
         id="circle5348"
         r="0.45"
         cy="3.870"
         cx="7.820"
         style="fill:#383B53;stroke:none" /><circle
         id="circle5350"
         r="0.45"
         cy="5.948"
         cx="8.270"
         style="fill:#383B53;stroke:none" /><circle
         id="circle5352"
         r="0.45"
         cy="7.428"
         cx="7.973"
         style="fill:#383B53;stroke:none" /><circle
         id="circle5354"
         r="0.45"
         cy="8.072"
         cx="9.342"
         style="fill:#383B53;stroke:none" /><circle
         id="circle5356"
         r="0.45"
         cy="9.315"
         cx="8.206"
         style="fill:#383B53;stroke:none" /><circle
         id="circle5358"
         r="0.45"
         cy="9.475"
         cx="9.682"
         style="fill:#383B53;stroke:none" /><circle
         id="circle5360"
         r="0.45"
         cy="6.186"
         cx="9.688"
         style="fill:#383B53;stroke:none" /><circle
         id="circle5362"
         r="0.45"
         cy="6.296"
         cx="3.379"
         style="fill:#383B53;stroke:none" /><circle
         id="circle5364"
         r="0.45"
         cy="8.204"
         cx="2.871"
         style="fill:#383B53;stroke:none" /><circle
         id="circle5366"
         r="0.45"
         cy="8.719"
         cx="4.59"
         style="fill:#383B53;stroke:none" /><circle
         id="circle5368"
         r="0.45"
         cy="9.671"
         cx="3.181"
         style="fill:#383B53;stroke:none" /><circle
         id="circle5370"
         r="0.45"
         cy="7.315"
         cx="5.734"
         style="fill:#383B53;stroke:none" /><circle
         id="circle5372"
         r="0.45"
         cy="6.513"
         cx="6.707"
         style="fill:#383B53;stroke:none" /><circle
         id="circle5374"
         r="0.45"
         cy="9.670"
         cx="5.730"
         style="fill:#383B53;stroke:none" /><circle
         id="circle5376"
         r="0.45"
         cy="8.373"
         cx="6.535"
         style="fill:#383B53;stroke:none" /><circle
         id="circle5378"
         r="0.45"
         cy="7.154"
         cx="4.37"
         style="fill:#383B53;stroke:none" /><circle
         id="circle5380"
         r="0.45"
         cy="7.25"
         cx="0.622"
         style="fill:#383B53;stroke:none" /><circle
         id="circle5382"
         r="0.45"
         cy="5.679"
         cx="0.831"
         style="fill:#383B53;stroke:none" /><circle
         id="circle5384"
         r="0.45"
         cy="8.519"
         cx="1.257"
         style="fill:#383B53;stroke:none" /><circle
         id="circle5386"
         r="0.45"
         cy="6.877"
         cx="1.989"
         style="fill:#383B53;stroke:none" /><circle
         id="circle5388"
         r="0.45"
         cy="3.181"
         cx="0.374"
         style="fill:#383B53;stroke:none" /><circle
         id="circle5390"
         r="0.45"
         cy="1.664"
         cx="1.166"
         style="fill:#383B53;stroke:none" /><circle
         id="circle5392"
         r="0.45"
         cy="0.093"
         cx="1.151"
         style="fill:#383B53;stroke:none" /><circle
         id="circle5394"
         r="0.45"
         cy="10.093"
         cx="1.151"
         style="fill:#383B53;stroke:none" /><circle
         id="circle5396"
         r="0.45"
         cy="4.451"
         cx="1.302"
         style="fill:#383B53;stroke:none" /><circle
         id="circle5398"
         r="0.45"
         cy="3.763"
         cx="3.047"
         style="fill:#383B53;stroke:none" /></pattern></defs><sodipodi:namedview
     pagecolor="#ffffff"
     bordercolor="#666666"
     borderopacity="1"
     objecttolerance="10"
     gridtolerance="10"
     guidetolerance="10"
     inkscape:pageopacity="0"
     inkscape:pageshadow="2"
     inkscape:window-width="1936"
     inkscape:window-height="1248"
     id="namedview5"
     showgrid="false"
     borderlayer="true"
     inkscape:document-units="mm"
     units="mm"
     inkscape:zoom="1.4142136"
     inkscape:cx="50.262886"
     inkscape:cy="53.8768"
     inkscape:window-x="0"
     inkscape:window-y="0"
     inkscape:window-maximized="0"
     inkscape:current-layer="Layer_1" /><path
     style="fill:#ffffff;fill-rule:evenodd;stroke:#ffcc00;stroke-width:0.29055119;stroke-linecap:butt;stroke-linejoin:miter;stroke-miterlimit:4;stroke-dasharray:none;stroke-opacity:1"
     d="M 100.93949,104.00111 C 95.14515,102.11809 90.71247,99.005065 85.913474,96.222938 L 64.877047,91.626744 60.280853,87.56088 C 55.991293,85.132188 51.550265,83.359858 47.729708,78.898822 41.657015,74.301578 38.720675,70.684444 35.178562,66.878006 L 28.991378,56.448181 25.986174,51.498434 26.162951,49.02356 21.213203,37.709852 c -1.254209,-2.171843 -2.932521,-4.245815 -2.12132,-6.894291 -1.210902,-1.44299 -2.279074,-3.278487 -2.828427,-6.540738 -2.404471,-2.398348 -1.864647,-4.060621 -2.474874,-6.010408 L 11.844039,11.723677 C 10.213455,9.8702783 8.5686117,7.9931156 7.4246212,6.9507067 5.7190055,5.1603602 3.806478,4.8183959 1.9445437,4.1222796 L 4.4194174,3.0616194 c 2.4512084,-0.6439995 4.3990558,0.054297 6.3639606,0.7071068 3.686463,0.8827713 6.079701,2.1634577 7.601398,3.7123106 1.721125,0.1963598 3.394579,0.7740899 4.949748,2.298097 1.782845,0.9729662 2.507995,-0.1694598 5.480077,3.1819802 4.319625,0.19494 5.269394,1.887594 6.717515,3.358758 2.344132,0.01252 4.144201,1.548422 5.656854,3.889087 2.922129,0.288905 4.54584,1.976107 5.303301,4.596194 2.384924,1.438019 4.815726,2.753697 6.717514,5.480078 2.775147,1.878712 5.918386,2.758318 7.601398,7.601397 1.778502,1.440964 4.36272,1.572639 4.949748,4.949748 2.061853,1.709383 4.770453,2.772019 5.126524,6.187184 1.538114,1.482753 3.079426,2.964925 2.828427,4.772971 l 0.883884,1.414214 0.707106,2.298097 2.298097,2.65165 c 3.219385,1.07992 2.769431,3.670746 3.358758,5.833631 1.175464,1.767767 2.391748,3.535534 1.944543,5.303301 1.913249,1.861013 1.992536,3.221854 2.121321,4.596194 l 1.59099,4.065864 c 2.159482,0.644673 3.206718,2.679654 4.772971,4.065864 1.32845,2.793875 2.113467,5.285843 1.944543,7.247844 -0.21754,1.759043 0.352691,3.336293 2.298097,4.596195 l 2.828427,2.828427 4.242641,2.474878 c 0.5022,0.82496 1.32905,1.64991 1.06066,2.47487 -0.98883,0.24057 -2.28575,1.30273 -2.82843,0.35355 z"
     id="path4139"
     inkscape:connector-curvature="0"
     sodipodi:nodetypes="ccccccccccccccccccccccccccccccccccccccccccc" /><path
     style="fill:url(#pattern5622);fill-opacity:1;fill-rule:evenodd;stroke:none;stroke-width:0.29055119;stroke-linecap:butt;stroke-linejoin:miter;stroke-miterlimit:4;stroke-dasharray:none;stroke-opacity:1"
     d="M 89.449008,97.637151 80.168231,95.515831 66.291261,91.891909 57.629203,86.146666 48.348426,79.429152 35.708893,67.673502 29.521708,57.685618 25.897786,50.61455 26.074563,49.200337 22.627417,40.891832 19.180271,31.080726 16.970563,25.423871 14.053747,18.883134 C 13.135322,15.523945 12.05899,12.427935 10.438536,10.238794 9.2206899,8.0075852 6.5127367,5.941944 3.1819807,3.9455032 8.7044336,3.7122041 11.501086,6.5334897 14.559463,10.551158 c 6.467773,8.496457 12.301444,22.409711 15.227411,29.45679 4.33253,10.434735 5.93206,11.83281 10.518212,18.031224 5.881041,7.948521 12.471582,16.677271 20.682874,22.185475 5.887761,3.94956 20.240931,10.69499 20.240931,10.69499 z"
     id="path4141"
     inkscape:connector-curvature="0"
     sodipodi:nodetypes="cccccccccccccccsssscc" /><path
     d="m 2.5544761,5.105166 c 0.8037531,0.013294 3.0210772,1.0777655 3.8365466,1.6499009 2.8659043,2.0107275 2.0486036,3.9635591 4.7944633,6.3730791 0.247794,3.208274 0.871094,3.497885 2.0326,5.315154 -0.800191,2.076424 2.302458,6.246555 2.733069,6.493481 0.304257,2.629084 0.761135,4.789824 2.304184,6.208465 -0.450849,1.987822 0.04799,2.894223 0.766147,4.739618 0.589569,1.514972 1.458006,2.414597 2.465429,3.300589 0.79516,4.461739 1.95372,6.095906 3.898636,9.780513 -0.783851,0.982716 0.967748,5.219336 1.962375,6.281241 2.121494,2.264999 3.280619,6.942678 4.819089,9.184879 3.856518,5.620575 9.916838,11.039535 15.367079,15.40988 0.234416,0.889947 0.677933,1.615997 1.829047,2.509513 3.027567,2.350045 7.296168,4.348263 10.523573,6.250538 2.902072,4.769998 10.446555,5.227283 15.499275,6.336806 2.501538,0.549311 4.56154,1.140745 7.102686,1.619035 2.436151,0.458528 4.014312,0.959011 6.614872,2.787224 2.600559,1.828208 7.402781,3.802248 10.511161,5.355838 1.687212,0.84329 4.947682,-0.11114 4.811472,-1.58897 -0.10006,-1.08559 -0.95888,-1.67162 -1.50671,-2.31543 -0.36513,-0.42914 -2.04534,-1.98441 -3.461965,-2.592867 -1.448882,-0.622315 -2.874279,-1.98968 -3.72351,-2.90071 -1.850774,-1.985454 -1.404935,-5.901556 -2.491858,-8.765279 -0.848874,-2.236534 -2.374987,-4.09499 -4.015168,-5.864367 -0.374209,-0.403687 -1.67875,-1.434738 -2.129299,-1.723803 0.07258,-1.314543 -0.668803,-2.374399 -1.147047,-2.315793 -0.209492,-1.22891 -0.197759,-2.276126 -0.705901,-3.395438 -0.508138,-1.119312 -1.005819,-1.917428 -1.645089,-2.260083 0.04944,-0.81962 -0.412349,-2.030509 -0.626542,-2.596229 -0.289744,-0.765257 -0.688876,-1.502911 -1.238146,-2.087044 -0.217383,-0.931104 -0.251654,-2.052914 -0.754332,-3.380768 -0.502673,-1.327853 -1.601469,-3.192033 -3.380511,-4.054676 -0.587311,-1.181569 -1.217365,-2.066926 -2.221079,-2.75536 -0.06593,-1.042551 0.55658,-1.788355 -1.069536,-2.7923 0.221275,-1.460826 0.235866,-1.989692 -1.032469,-3.453468 -0.827828,-0.955391 -1.646972,-1.51407 -1.963223,-1.628985 0.24044,-1.439954 -0.408691,-2.54313 -1.271556,-3.414972 -1.165891,-1.178022 -2.200966,-1.836482 -3.620312,-2.312496 -0.40316,-1.026575 -0.213223,-2.44288 -1.104059,-3.336332 -0.890834,-0.893453 -2.396132,-1.625639 -3.575255,-1.783186 -0.357269,-0.726985 -1.087533,-2.959439 -2.244169,-4.472406 -1.156636,-1.512967 -3.642892,-2.735903 -6.27695,-3.805121 -1.007752,-1.552969 -1.659562,-2.62697 -3.21667,-3.661773 -0.700903,-0.465796 -2.208837,-1.592908 -2.858403,-1.755613 -1.03913,-3.042806 -4.261894,-4.960622 -5.402276,-4.402269 C 40.967121,18.259513 40.390486,16.695868 39.326871,16.12723 37.923215,15.376796 36.666725,15.306629 35.579353,15.460531 34.361411,13.721956 33.22551,12.58018 31.42582,12.461842 30.799525,12.420657 29.67228,12.283584 29.120592,12.169752 28.312037,11.219428 27.700627,10.681592 26.681243,9.9494139 25.617996,9.1857319 24.21703,8.7148005 23.245518,9.1276595 22.40462,8.3849592 22.099048,8.0104654 21.322835,7.5132847 20.51544,6.9961323 19.071574,6.6966759 18.723014,6.6555239 16.918669,4.7190125 14.605304,4.2022719 12.221236,3.5843192 11.178135,3.3139467 9.946529,2.7227733 8.9274682,2.4719579 7.4346963,2.1045507 5.7876518,2.4368964 4.7103946,2.6271271 2.0107196,3.1038571 -0.30014613,5.0579536 2.5544761,5.105166 Z M 27.162474,23.113187 c 1.365005,1.642566 2.259211,2.515398 3.586288,4.197901 -2.437377,-1.390778 -3.925426,-3.457862 -6.421441,-4.67113 -2.76116,-1.342151 -6.54802,-1.292256 -8.736534,-3.770269 -1.231817,-1.394763 -1.316529,-2.279153 -1.107965,-3.001973 1.181605,1.081702 2.565363,1.699561 4.061666,2.101078 2.295555,0.615986 4.441089,0.814921 6.300199,2.498494 0.883113,0.799731 1.49324,1.653688 2.317787,2.645899 z m 8.594337,10.592649 c -2.728931,-1.549255 -5.422026,-3.148221 -8.21772,-4.499788 -3.417825,-1.652332 -7.136206,-1.764215 -9.959443,-4.52387 -0.340105,-0.332445 -1.587417,-1.832262 -1.647147,-2.743937 1.739582,2.351673 5.984606,4.281861 8.660353,4.787537 3.442359,0.650554 1.25953,-0.152808 0.297974,-0.50886 -3.71111,-1.374175 -6.35424,-3.336653 -7.591544,-4.239907 -0.420016,-0.306618 -1.253886,-1.023214 -1.508571,-1.623427 1.677124,1.664103 4.698223,2.022792 6.800776,2.730285 3.388481,1.140196 5.559332,4.097361 8.461782,6.268839 1.639679,1.226731 3.376532,2.670563 4.70354,4.353128 z M 18.193309,26.330658 c 1.970267,1.76301 4.752472,2.39659 7.048172,3.064643 3.815753,1.110392 6.710961,3.242471 10.056109,5.504748 1.429359,0.966656 2.575037,2.173999 3.646898,3.602824 0.486708,0.648796 1.036045,1.130175 1.502363,1.801011 -1.083511,-0.720771 -1.643116,-1.50586 -2.706122,-2.301039 -1.811493,-1.355082 -4.077549,-2.344649 -6.128862,-3.150115 -3.990555,-1.566925 -8.5916,-1.595234 -11.868853,-4.737608 -0.932645,-0.89426 -1.424175,-1.589384 -1.549705,-3.784464 z M 45.832957,47.799093 C 41.880596,45.733138 39.134514,43.047697 34.957622,41.548844 31.462125,40.294506 27.985149,39.71702 24.916749,37.854293 c -0.824841,-0.500735 -1.562753,-1.203846 -2.234323,-1.950479 -1.261718,-1.402745 -2.09998,-2.522781 -2.416454,-3.783457 0.917961,0.666271 6.214521,3.298877 9.198862,3.802094 1.634565,0.275618 5.255851,1.504457 7.571499,3.256882 1.05909,0.801496 3.13421,2.292571 4.142749,3.220541 1.417674,1.30442 2.924082,3.009671 4.653875,5.399219 z m 6.702623,8.493161 c 0.05359,0.0016 0.32547,0.298628 0.669191,0.688909 0.220768,0.250672 0.502019,0.646851 1.150877,1.53236 -8.830357,-6.755116 -21.551563,-3.794151 -28.683624,-13.630179 -0.723102,-0.997252 -0.98881,-2.267622 -1.496291,-3.416803 2.609737,3.005881 8.249087,4.490181 11.507734,5.473349 5.599127,1.689318 9.850872,3.507746 13.627935,6.191339 0.576935,0.40991 1.848358,1.306908 2.29026,1.887607 -2.397782,-0.852965 -3.733781,-1.950069 -6.062893,-3.011461 -0.500498,-0.228081 -1.269434,-0.122 -0.08689,0.408093 1.182547,0.530093 4.653535,3.2314 7.083701,3.876786 z m -15.260876,3.103192 c 2.112833,0.222213 1.2777,-0.314739 0.143117,-0.599395 -1.818287,-0.456193 -5.498471,-1.80261 -6.910202,-3.223345 -1.495907,-1.505444 -2.188016,-2.369477 -3.296944,-4.164252 -1.330616,-1.410798 0.06829,-0.82524 0.919655,0.07241 3.410441,4.254054 8.401928,6.099572 13.316454,7.496025 2.666162,0.757583 5.279858,0.577432 7.98376,1.050582 2.944337,0.515221 5.306595,1.311492 7.688993,3.260002 0.919744,0.752239 1.397229,1.128043 2.098284,2.074904 -2.912366,-2.093666 -7.346262,-2.444597 -11.152604,-2.880541 -2.735757,-0.31333 -5.477231,-0.66388 -8.140041,-1.337684 -1.932833,-0.489088 -5.99732,-2.148762 -6.496846,-2.582326 0.792071,0.317411 3.216479,0.767371 3.846374,0.833619 z m -1.374846,-3.657703 c -3.348669,-1.48176 -4.651702,-2.907227 -6.416455,-4.492497 -1.632671,-1.466622 -2.633407,-3.018574 -3.067345,-3.896988 2.919512,3.492867 7.841276,5.311919 11.765911,6.508297 6.090815,1.856713 11.926541,2.366036 16.191397,5.56657 0.302924,0.227325 1.004999,0.844265 1.888575,2.005653 -3.741291,-2.923591 -7.70639,-2.239629 -11.292626,-2.892579 -3.586234,-0.652952 -6.384079,-1.610197 -9.069457,-2.798456 z m 1.91882,-9.327869 c -2.288875,-0.854114 -5.168823,-1.895926 -7.486326,-2.717884 -2.771204,-0.982875 -5.229537,-2.012315 -7.152707,-4.345677 -0.670598,-0.813629 -0.832543,-1.399379 -0.94587,-1.878848 2.800192,2.922643 7.449057,3.965627 11.053546,5.000568 2.039318,0.585541 4.419085,1.690181 6.617511,2.863456 3.293775,1.75785 6.1837,3.655941 6.929361,4.117151 0.546158,0.337814 1.685796,1.893903 2.323869,2.635914 -3.870322,-3.13628 -6.890882,-4.014683 -11.339384,-5.67468 z m -5.757696,12.953431 c 3.638161,2.765827 8.567368,3.50998 12.524254,4.097285 5.384473,0.799195 12.960374,1.305481 15.69198,3.590463 0.428531,0.358465 0.755444,0.898959 1.5347,1.937734 C 59.791894,68.088542 58.954995,67.556845 56.7666,66.997318 54.413858,66.395771 51.971966,66.274263 49.555218,66.136959 44.6144,65.856252 40.383532,65.631278 36.342087,62.092335 c -0.740871,-0.648754 -0.625368,-0.148659 -0.237663,0.279897 2.961382,3.273429 7.345899,4.507494 11.293312,4.72748 2.47056,0.137682 4.562348,0.235379 6.99934,0.591278 1.501031,0.219212 3.428623,0.772996 4.868464,1.347076 1.32786,0.529431 2.254624,0.517727 3.44574,1.356643 1.015355,0.715125 1.034734,0.957595 1.723696,1.827404 -1.516573,-0.615605 -2.20576,-1.421271 -3.83654,-1.799976 -1.950862,-0.453038 -3.82763,-0.532637 -5.7894,-0.596411 -4.326068,-0.140637 -8.300584,0.157684 -12.299803,-1.652441 -1.171467,-0.53023 -1.378396,-0.430124 -0.07175,0.369924 3.190482,1.953515 7.110161,1.941586 10.681333,2.150683 2.148154,0.125778 4.259706,-0.02326 6.380298,0.390177 2.280886,0.444682 3.580369,1.276616 5.505049,2.443416 0.967842,0.586735 1.194587,0.833201 1.92337,1.75108 -3.698737,-1.894607 -7.28812,-2.01223 -11.502415,-2.303961 -2.281863,-0.157958 -4.622445,-0.139854 -6.901606,-0.373377 -1.556189,-0.159448 -2.890897,-0.5113 -4.166449,-1.08926 1.17127,0.455394 2.209383,0.397534 3.391076,0.479723 0.614976,0.04276 1.018361,-0.318186 0.266879,-0.384492 -1.871953,-0.165171 -4.878045,-0.727417 -6.54529,-1.652126 -1.301157,-0.721667 -2.349872,-1.36607 -3.380578,-2.553886 -1.661188,-1.914401 -2.69367,-3.168051 -3.820994,-4.769413 -1.127324,-1.601361 -1.589106,-2.234952 -2.207175,-3.268468 z m 17.62361,16.969338 c 3.727683,1.322487 6.092775,2.368447 9.96693,2.33433 4.061177,-0.03576 8.365046,-1.360163 11.376953,1.943356 l 1.433823,1.572646 c -1.191049,-0.72428 -2.003942,-1.108163 -3.341473,-1.440454 -1.975497,-0.490785 -3.459596,-0.560425 -5.500151,-0.68562 -2.094229,-0.128487 -4.891053,0.467926 -6.955132,0.197821 -1.875516,-0.24543 -6.17266,-0.614762 -7.33591,-1.53803 -2.264239,-1.797118 -5.91454,-4.517227 -8.426262,-7.162264 2.879147,1.971447 8.346326,1.974601 11.644426,2.235876 5.746052,0.455201 11.902855,0.02119 15.616103,3.082024 0.583821,0.481245 0.765643,0.811979 1.106284,1.361747 -2.37729,-1.627232 -5.388254,-0.81763 -8.179771,-0.794129 -4.812151,0.04051 -6.758365,-0.265981 -11.363471,-1.482793 -0.552469,-0.14598 -0.718743,0.135524 -0.04235,0.37549 z m 8.029094,6.648878 c -1.759839,-0.344664 -3.650797,-0.868834 -5.130217,-1.870737 0.485436,-0.0061 3.463588,0.766868 3.925909,0.743801 2.049869,-0.102275 3.329459,-0.238466 5.399176,-0.388814 2.413328,-0.175308 3.821711,-0.265479 6.193455,0.267052 2.449718,0.550036 3.968024,0.878216 4.984477,1.644667 0.40074,0.302175 0.611606,0.756022 1.548946,1.439691 -5.617694,-2.498535 -11.555469,1.866267 -17.799992,-0.84529 1.731552,0.62264 4.475874,-0.52247 5.927421,-0.642775 1.837579,-0.152299 1.533187,-0.440109 -0.531305,-0.470278 -1.031644,-0.01508 -3.121512,0.396187 -4.51787,0.122683 z m 8.290312,2.543064 c 3.793931,-0.09784 7.162284,-0.310404 9.071457,0.310297 0.401296,0.130467 1.559189,0.699605 1.846106,1.036831 -2.17654,-1.084206 -4.155555,-1.106824 -6.450757,-0.401873 -0.842059,0.258631 -0.488542,0.478792 0.02291,0.407945 2.618059,-0.362669 4.459852,0.01784 5.999584,0.590323 1.5005,0.557892 1.883507,0.685643 2.2502,1.055314 -2.767713,-1.103429 -5.040971,-1.535167 -8.004925,-1.257852 -3.182892,0.297798 -7.170216,0.656957 -9.20637,-0.139435 -2.036155,-0.796389 -2.274265,-1.324141 -1.630247,-1.27346 0.644017,0.05068 3.760074,-0.267696 6.102051,-0.32809 z m 2.738459,5.597039 c 1.179124,0.157545 3.462418,-0.821615 4.566446,-0.873592 3.015613,-0.141975 5.758211,0.817949 7.764675,1.694634 0.757053,0.33078 1.502336,0.701176 2.476853,1.478034 -1.808163,-0.774116 -2.365321,-0.933205 -4.293887,-1.231579 -2.704845,-0.418474 -6.358881,0.532518 -9.00215,-0.273145 -0.544988,-0.166111 -1.008488,-0.509709 -1.511937,-0.794352 z m 6.293905,-1.934943 c -2.660682,-0.07036 -6.344089,1.822449 -8.944795,0.93362 -0.79162,-0.270548 -1.960204,-0.998209 -2.808956,-1.443061 1.361722,0.372159 4.46191,-0.539933 5.806944,-0.56332 1.641508,-0.02855 3.181087,-0.305885 4.818312,-0.171265 1.958597,0.161045 3.315723,0.520142 5.094867,1.385393 0.76898,0.373979 1.852672,1.314426 2.509384,1.902091 -2.127462,-0.903772 -4.218418,-1.983764 -6.475756,-2.043458 z m -1.071538,3.756155 c 1.096173,0.244243 2.78417,0.0054 3.862073,0.08946 2.729666,0.212699 4.063629,0.687795 5.726722,1.352772 1.663093,0.664976 2.562574,1.033967 3.168753,1.500793 -2.792197,-1.193653 -5.406094,-1.323986 -7.514536,-1.928957 -2.108441,-0.604969 -3.78015,-0.400146 -5.243012,-1.014065 z m 24.635633,9.036674 c -1.463851,-0.55615 -2.893588,-1.37873 -4.27322,-2.135991 -4.796683,-2.632824 -8.978753,-5.919965 -13.128005,-9.691297 -2.074623,-1.885661 -5.71567,-5.516392 -7.250365,-7.320174 -0.951956,-1.11887 -2.722368,-3.322581 -4.520469,-5.497267 -3.829311,-4.684925 -7.558447,-9.475532 -11.238884,-14.314911 -4.677067,-6.149837 -0.20284,-0.998308 -11.581088,-15.531967 -1.200058,-1.532856 -2.041994,-3.150122 -3.434284,-4.6487 -3.226735,-3.473059 -0.03228,-0.835243 0.366734,-0.397698 1.45957,1.600505 4.878942,6.520589 6.078632,8.049248 2.644223,3.369301 7.364365,9.566324 10.93938,14.454302 1.314056,1.796658 3.071596,4.089662 4.522476,5.929586 1.952822,2.476457 3.88734,4.914936 5.96802,7.198629 2.413081,2.648523 4.53739,5.711586 7.038526,8.082503 1.338364,1.268683 3.178144,2.832471 4.427225,3.882383 2.365409,1.988231 3.510304,3.007717 6.108911,4.459826 0.646208,0.361101 3.28109,1.862391 3.911497,2.164019 3.313546,1.585423 4.754944,2.308801 8.035097,3.918999 1.2407,0.60904 2.98131,2.11267 1.72991,2.14645 -1.25141,0.0338 -2.847557,-0.42405 -3.700093,-0.74794 z m -2.570855,-4.987495 c -0.678539,-0.189326 -2.666483,-1.01467 -3.122694,-1.617047 -0.317717,-0.41951 -0.49459,-1.019246 -0.633072,-1.504589 -0.230688,-0.808494 -0.266934,-1.659839 -0.378264,-2.445224 -0.202042,-1.425327 -0.549621,-1.615469 -0.361554,0.160877 0.10044,0.948696 0.138489,2.058924 0.434049,2.905358 0.104506,0.299287 0.301925,0.784828 0.535152,1.120259 -0.818426,-0.562605 -1.309725,-1.715484 -1.383421,-1.88531 -0.646903,-1.490735 -0.540296,-3.404208 -0.616531,-5.869876 -0.05169,-1.671793 -0.08902,-2.996594 -1.082286,-4.725651 1.374427,1.922494 1.77855,2.296978 2.509239,4.660423 0.429486,1.389191 0.313325,3.675422 0.997246,5.669748 0.479643,1.39864 1.792214,2.641403 3.102136,3.531032 z M 88.292515,83.710493 c 0.260395,0.995341 0.223325,1.928465 0.255311,2.932909 0.04644,1.458564 0.219584,0.821807 0.372893,0.02868 0.203497,-1.052779 0.115251,-2.321188 -0.310833,-3.497449 1.389435,2.370099 1.191177,4.682012 1.130331,7.63105 -0.03442,1.668017 0.363987,2.556894 0.920592,3.674276 -0.425207,-0.192683 -0.107555,0.156261 -0.673129,-0.445561 -1.797202,-1.912389 -1.805667,-4.852691 -2.104575,-7.783505 -0.192149,-1.884031 -0.337052,-3.721736 -1.069871,-5.504153 0.316204,0.248627 0.480677,0.328326 0.775894,0.859574 0.295216,0.531246 0.499725,1.3257 0.703387,2.104183 z M 80.462376,66.873441 c 0.291699,1.171985 0.258119,1.696338 0.393524,3.205822 0.153147,1.707273 0.05903,3.629253 -0.852111,5.98938 -1.225379,3.174109 -3.449665,6.43078 -0.469466,9.11245 0.492659,0.443308 0.601445,0.211029 0.2459,-0.269051 -2.246605,-3.033506 -0.676215,-5.042998 0.511983,-7.794222 0.555442,-1.286102 1.07493,-2.738974 1.198553,-4.524939 0.08388,-1.211814 0.04022,-2.40615 -0.170859,-3.575487 0.272015,0.366148 0.556452,0.783441 0.694716,1.185046 0.582153,1.690935 0.491409,3.481557 0.289127,5.383619 -0.227353,2.1378 -0.55972,3.997765 -0.995631,6.069102 -0.548479,2.606224 -0.691842,4.823928 1.626874,6.289448 0.768255,0.485568 1.289723,0.775425 0.112367,-0.263611 -1.784426,-1.574783 -2.011403,-3.040213 -1.370392,-5.973468 0.631579,-2.890088 1.661172,-5.687976 1.296659,-9.125574 0.458405,0.968748 0.689558,1.240262 0.845774,1.963099 0.408617,1.890732 0.0094,4.101286 -0.757899,5.957889 -0.49688,1.202261 -0.967003,2.943343 -0.807227,4.288586 0.141474,1.191163 0.366356,1.419614 0.346206,-0.143458 -0.01544,-1.197524 0.25683,-2.102003 0.703886,-3.226058 0.302038,-0.759425 0.666833,-1.494774 0.947389,-2.264255 0.299449,-0.821301 0.420285,-1.655589 0.36095,-2.462241 0.18312,0.444155 0.197343,0.710769 0.202063,0.862564 0.04902,1.575978 0.0038,3.254671 -0.08296,5.129382 -0.164067,3.541961 -0.939606,7.352669 2.506878,9.246802 1.017788,0.559361 0.415358,-0.119558 0.207751,-0.313614 -3.626405,-3.389778 -1.937544,-5.545943 -2.058852,-10.110405 -0.01348,-0.507116 -0.03338,-2.346519 -0.100658,-2.855412 1.602106,3.479861 2.10527,6.656279 2.355807,10.568639 0.110972,1.732918 0.447566,3.412519 1.3833,4.635206 -2.27611,-1.385426 -4.204821,-3.288345 -6.363159,-5.086295 -1.78858,-1.489932 -3.503094,-2.954597 -5.052163,-4.770081 -1.23269,-1.444695 -1.349474,-4.256677 -0.79465,-6.771784 0.528381,-2.395229 1.553094,-4.563692 1.912432,-6.747471 0.448829,-2.727631 -0.256481,-6.654986 -1.389205,-9.583032 0.475808,0.313194 1.32687,0.673978 1.832808,1.882809 0.505937,1.208831 0.998586,2.91863 1.290287,4.090615 z m -3.386564,7.04364 c -0.520415,1.811122 -1.227263,2.745538 -1.446539,4.632359 -0.120181,1.034133 -0.314819,2.522609 0.290745,3.863226 -0.550857,-0.524562 -0.851542,-1.067009 -1.025565,-1.490867 -0.521467,-1.2701 -0.2856,-2.264273 0.336689,-4.539993 0.419863,-1.535453 1.307097,-3.576852 1.303587,-5.275393 -0.0022,-1.075973 -0.35417,-4.248644 -0.869709,0.231286 -0.239629,2.082323 -1.053676,3.983324 -1.716058,5.905578 -0.14745,0.427907 -0.172159,0.752152 -0.151789,1.814739 -1.618591,-2.619311 -0.313611,-7.878801 0.668059,-12.317067 0.484587,-2.190888 1.208235,-5.91807 0.767782,-8.585182 1.133653,2.420193 2.05898,4.56311 2.327912,7.612127 0.268931,3.049018 0.279085,5.489668 -0.485114,8.149187 z m -4.57724,-3.041768 c -0.434345,3.29475 -1.015047,5.419698 0.366529,8.038893 -0.783697,-1.012387 -1.199194,-1.596319 -1.634948,-2.444637 -2.396675,-4.665793 -1.214082,-9.935115 1.067803,-15.230961 0.669298,-1.55332 1.436639,-4.547509 1.630456,-6.400932 1.347113,4.66908 -0.854724,11.675068 -1.42984,16.037637 z m -2.700902,3.85513 c -1.20287,-0.872031 -1.840111,-1.960251 -1.902787,-2.575107 -0.04268,-0.418685 -0.388941,-1.354849 -0.370888,-1.810215 0.09009,-2.272977 0.65975,-4.05617 1.565625,-5.755379 1.04663,-1.963227 2.243192,-4.074018 1.989472,-6.501992 -0.03619,-0.346311 -0.258661,-1.349467 -0.33704,0.0941 -0.186036,3.426425 -2.850609,5.627433 -3.543764,8.916204 -0.167919,0.796712 -0.312824,1.659009 -0.362579,2.521772 -0.214224,-1.050144 -0.396948,-2.129303 -0.40008,-3.172515 -0.01056,-3.517659 1.077201,-6.825744 2.62777,-9.870055 1.357069,-2.664407 2.23872,-3.336726 1.915193,-5.826211 0.548075,0.478905 1.035979,0.999749 1.425072,1.591272 0.888214,1.350311 0.838046,2.810779 0.249431,5.252774 -0.588617,2.441993 -2.044145,4.968494 -2.910853,8.24893 -0.866708,3.280435 -1.398958,4.904655 0.05544,8.886414 z m -0.05013,-21.87064 c -0.648947,2.545126 -2.620098,4.543977 -3.38736,7.082123 -1.177892,3.896525 -1.705443,6.799119 -0.356927,10.717843 -0.750999,-0.92852 -1.724785,-2.764192 -1.923778,-3.326282 -2.183158,-6.16667 0.0891,-10.645695 1.80913,-15.777287 0.81116,-2.420046 1.741562,-4.181209 1.150351,-6.227286 0.262337,0.246926 1.133073,0.506616 1.693552,1.329272 0.979017,1.436973 1.956527,2.509137 1.015032,6.201617 z M 64.160002,41.430954 c 1.300393,1.160182 2.28264,3.846659 1.790804,7.198943 -0.361238,2.462152 -1.786555,4.416906 -2.464126,6.768635 -1.23162,4.274736 -1.958271,6.46058 -0.671771,11.06746 -0.867359,-0.910273 -1.058052,-1.319692 -1.889251,-2.736699 -1.054961,-1.798473 -0.932667,-4.531388 -0.294163,-7.880217 0.425779,-2.233126 1.391592,-4.27587 1.70379,-6.196948 0.568804,-3.500085 0.402503,-7.080928 -1.05105,-10.07911 1.384288,0.531106 2.148577,1.209153 2.875767,1.857936 z m -4.899547,-4.14442 c 1.332891,1.965772 1.991218,4.408558 2.227462,7.754348 0.194088,2.748756 -0.555375,5.465745 -1.185011,8.099394 -0.791674,3.311422 -1.481454,5.623071 -0.67921,9.198826 -0.57062,-0.793549 -0.797628,-1.611798 -1.558239,-3.322939 -1.087097,-2.445635 -0.573055,-4.954997 0.278022,-7.939107 0.621077,-2.177667 1.009428,-4.375009 0.960131,-6.734553 -0.01019,-0.487779 -0.709103,-6.473834 -0.825056,0.166619 -0.06409,3.669878 -0.981247,6.112947 -1.721884,9.605434 -0.427005,2.013542 -0.09177,4.031501 0.826694,5.909357 -2.092767,-2.868458 -2.65753,-6.05849 -2.574053,-9.266808 0.08607,-3.3079 0.853236,-6.63672 0.804681,-9.752424 -0.04929,-3.162761 -0.907737,-6.348582 -2.424449,-8.991024 0.796534,0.383606 1.593125,0.767151 2.569204,1.484444 0.976076,0.717294 1.968819,1.822661 3.301708,3.788433 z M 49.139964,48.027706 c -0.784417,-1.292781 -1.352989,-2.30901 -2.106793,-3.798733 -1.66228,-3.285119 -0.992418,-7.893829 -1.627432,-13.369147 -0.372409,-3.201434 -1.546221,-6.607737 -3.383896,-9.320343 0.541908,0.321012 1.019039,0.767638 1.990359,1.847871 0.971321,1.080234 1.706751,3.260948 2.845517,5.482459 1.316302,2.567849 1.369906,5.236929 1.769649,8.118949 0.902074,6.503666 0.07749,9.344051 1.814138,12.983982 -0.299706,-0.314773 -0.910521,-1.300605 -1.301542,-1.945038 z m 0.737634,-13.386177 c -0.327553,-2.723735 -1.200067,-5.463842 -2.535806,-7.832142 0.746937,0.436535 1.023729,0.763621 1.453105,1.548332 0.869888,1.589773 2.232672,3.692257 2.522245,5.924967 0.31133,2.400457 0.787022,1.793509 0.735205,-0.524159 -0.028,-1.252402 -0.541629,-2.908914 -1.366706,-4.247179 0.497115,0.522821 1.080723,1.139797 1.412372,1.695976 0.692423,1.161209 1.3062,3.249547 1.847459,4.938725 0.974002,3.039697 0.888627,5.810144 0.641641,8.9615 -0.321575,4.103051 -1.187322,6.643103 -0.209807,9.950462 C 53.252555,53.56989 52.432601,52.558524 51.968033,51.504389 50.083084,47.227325 50.608038,40.71543 49.877598,34.641529 Z M 40.141785,20.811052 c 0.531921,0.820306 1.67829,3.184264 2.190605,4.2708 1.448776,3.072615 1.892283,6.241544 1.947638,9.670487 0.06693,4.145934 -0.577554,5.131593 1.584891,8.778632 -1.250325,-1.530994 -2.690336,-3.314968 -2.940224,-4.494317 -0.499508,-2.357428 -0.02622,-4.061933 -0.330309,-8.009166 -0.318207,-4.130596 -0.72936,-2.801065 -0.77565,0.101754 -0.05179,3.247241 -0.464843,5.449752 0.06574,8.395073 -0.908976,-1.276517 -1.930861,-6.312924 -1.960697,-6.655379 -0.260935,-2.994914 -0.426904,-5.996099 -1.147268,-9.747054 -0.336729,-1.753356 -0.818425,-3.038136 -2.057736,-5.571055 1.825827,0.498236 2.309484,1.916464 3.423016,3.260225 z m -8.21391,-6.667825 c 4.064446,1.789318 5.166812,6.599554 6.064879,11.160255 0.880006,4.468975 -0.02002,8.557192 1.887295,12.702713 -1.224239,-1.500348 -1.888277,-2.371598 -2.87467,-4.073191 -2.611658,-4.505285 -2.887399,-8.417709 -4.3395,-13.502305 -0.638697,-2.286087 -1.650444,-4.703553 -3.104696,-6.658428 0.763286,0.09716 1.724324,0.08816 2.366692,0.370956 z m -6.036302,-2.964256 c 1.91679,1.309478 3.166641,3.080161 4.365008,5.299912 1.160245,2.149135 1.537688,4.746053 2.176442,7.150192 0.950923,3.579073 1.473044,6.004349 3.377909,9.225759 -2.227358,-2.85552 -3.47929,-4.708681 -5.245782,-7.143722 -2.138555,-2.947914 -2.823264,-6.628367 -3.999223,-10.545987 -0.504602,-1.681041 -1.338183,-3.292414 -2.488898,-4.522141 0.638493,0.09063 1.309802,0.191166 1.814544,0.535987 z m -3.220354,-0.965255 c 0.916431,0.828658 1.003167,1.252956 1.905005,2.742893 0.901807,1.489884 1.331158,3.191386 1.773856,4.873798 0.656908,2.49648 1.227207,3.80066 1.627909,4.871559 -0.940261,-1.14541 -1.007558,-1.213082 -1.468216,-1.710549 C 25.654758,20.068077 25.309924,19.28702 24.448462,18.004084 23.587,16.721149 22.89229,15.264437 22.234897,13.454318 21.5108,11.460535 20.518437,9.3521846 20.134572,8.6757514 21.202373,9.0894579 21.84197,9.4638901 22.671219,10.213716 Z M 9.2429758,4.1398675 c 1.3958112,0.4147967 2.7760972,0.7161067 4.1371512,1.1777082 1.950899,0.6616478 3.035923,1.3510422 4.203559,2.4470485 1.167635,1.0960063 2.097255,2.4141768 2.555247,3.3048678 1.279454,2.488238 1.535962,2.89857 2.383147,5.21483 C 20.722409,14.169104 20.251169,13.374281 18.406235,11.373503 15.496699,8.2181953 12.946655,5.013014 8.7375207,4.6709021 7.5332661,4.5730221 6.8414797,4.4935523 8.6751948,5.1439903 11.412123,6.114808 12.37172,6.8345065 14.519873,8.9907879 c 0.681335,0.6779157 0.802067,0.8850976 1.428025,1.6208091 -0.817999,-0.592902 -1.321923,-0.9536317 -2.209132,-1.4002169 -0.838826,-0.4222314 -2.24918,-0.4802656 -0.0436,0.7648556 2.145072,1.2109603 4.00828,2.6948833 5.765197,4.3913293 -0.397502,-0.221557 -0.824301,-0.354666 -1.223431,-0.516696 -2.021574,-0.840627 -3.6151,-1.449155 -5.026095,-3.32901 -0.548689,-0.7310132 -0.708236,-0.519677 -0.376372,0.172852 0.580866,1.212145 1.614047,2.581278 2.731435,3.090551 1.699332,0.774504 3.266191,1.065957 4.783069,2.219029 1.163758,0.884643 2.200207,1.563707 3.165203,2.697903 C 22.588772,18.105811 21.52312,17.767729 20.534778,17.472718 18.161139,16.764207 15.966019,16.340577 14.078724,14.490762 13.595769,13.43185 13.059086,12.371101 12.49477,11.339316 10.697369,8.1213267 7.3525837,5.1603385 5.6597776,4.6576188 2.0458553,3.5843771 5.2843343,3.5155095 6.0047122,3.5771617 7.3254847,3.6901975 7.9506767,3.7558319 9.2429758,4.1398675 Z"
     id="path3"
     inkscape:connector-curvature="0"
     style="fill:#100d0d;stroke:none;stroke-width:0.03543307;stroke-miterlimit:4;stroke-dasharray:none;stroke-opacity:1"
     sodipodi:nodetypes="ssccccsccsscscssssssssssccscscscccscscscccsccscscscscssssscsscssscsscssscssccssscsssccssscsssccscscsscsscsssccssscsscssscsscssssscssscscsscsssssssscssssssscsscssssscssscsssscsscsssscssssccssssscsssssssscsscsscsssssscsssscsssssssssssssssssssssscssssscsscsscssscscsscssssssssscsssssscsssssscssssscscsssscsssscssssscscssscsscscssssssssscssscsscsssssccscsssscssscssssscssccsssscssscsscssscssscssssscssscsscsssccscscsssssscssscssscssssscsssscsscssssscssssss" /></svg>